<svg xmlns="http://www.w3.org/2000/svg" width="82mm" height="82mm" viewBox="-41 -41 82 82">
  <title>4-lead 3-bight knot sound hole - 39 mm radius — display only</title>
  <!-- DISPLAY ONLY - not a cut file. The cut layer of 4-lead_3-bight_knot_radius39mm.svg, filled even-odd.
       Deep gold is the rosette, pale gold the board it fuses into, cream the waste
       that drops out. The ribbon overruns the rim by BITE (1.5mm here) and becomes
       board, so the two golds part at r=40.5mm with the ribbon running straight on
       through - bounding the fill at R_HOLE instead sliced every lobe tip flat along a
       circle and showed a rosette that does not exist. The cream is painted, not
       transparent, so the picture reads the same on a light or a dark page.
       Cut files carry no fill; browsing one shows a transparency checkerboard. -->
  <defs><clipPath id="rosette"><circle cx="0" cy="0" r="40.5"/></clipPath></defs>
  <rect x="-41.0" y="-41.0" width="82.0" height="82.0" fill="#faf7f0"/>
  <path fill="#e6d9ae" fill-rule="evenodd" d="M-41.0 -41.0H41.0V41.0H-41.0ZM9.438 -37.779L9.489 -37.817L9.547 -37.813L11.48 -37.272L12.944 -36.789L14.35 -36.264L15.639 -35.727L16.927 -35.135L18.157 -34.515L19.387 -33.84L20.559 -33.141L21.73 -32.385L22.843 -31.61L23.956 -30.775L25.01 -29.925L26.064 -29.011L27.06 -28.085L28.028 -27.119L27.997 -27.066L26.826 -28.01L25.654 -28.877L24.776 -29.478L23.897 -30.041L22.667 -30.768L21.437 -31.429L20.149 -32.053L18.84 -32.624L17.811 -33.386L16.879 -34.03L15.931 -34.64L14.891 -35.26L13.53 -35.999L12.183 -36.655L10.809 -37.251L9.438 -37.779ZM-3.897 -34.616L-2.636 -34.65L-1.464 -34.634L-0.091 -34.557L-0.18 -34.499L-1.406 -34.228L-2.519 -33.939L-3.69 -33.587L-4.803 -33.206L-5.916 -32.778L-7.029 -32.3L-8.083 -31.799L-9.137 -31.249L-9.957 -30.784L-10.836 -30.248L-12.417 -29.176L-13.179 -28.606L-13.941 -27.997L-14.696 -27.353L-15.404 -26.708L-16.517 -26.344L-17.396 -26.027L-18.391 -25.631L-19.329 -25.219L-20.254 -24.776L-21.154 -24.307L-22.081 -23.784L-22.96 -23.248L-24.266 -22.374L-25.537 -21.427L-26.767 -20.411L-27.949 -19.329L-28.883 -18.391L-29.813 -17.375L-29.851 -17.396L-29.835 -17.454L-29.364 -18.391L-28.508 -19.914L-27.569 -21.379L-26.504 -22.843L-25.397 -24.19L-24.659 -25.008L-23.897 -25.793L-23.077 -26.578L-22.272 -27.294L-21.437 -27.986L-20.559 -28.662L-19.68 -29.29L-18.743 -29.909L-17.864 -30.446L-17.018 -30.926L-16.166 -31.374L-15.287 -31.801L-14.36 -32.214L-13.471 -32.577L-12.554 -32.917L-11.597 -33.237L-10.66 -33.517L-9.664 -33.779L-8.727 -33.993L-7.79 -34.176L-6.794 -34.337L-5.799 -34.465L-4.803 -34.559L-3.897 -34.616ZM4.442 -29.871L6.091 -29.926L7.731 -29.883L9.371 -29.743L11.07 -29.494L12.007 -29.311L12.944 -29.094L13.881 -28.844L14.76 -28.578L16.166 -28.087L16.648 -27.704L17.864 -26.611L18.989 -25.479L20.079 -24.249L21.086 -22.969L21.992 -21.671L22.856 -20.266L23.61 -18.86L24.288 -17.396L24.646 -16.517L24.968 -15.639L25.257 -14.76L25.528 -13.823L25.763 -12.886L25.973 -11.89L26.178 -10.66L26.218 -10.367L26.2 -10.309L26.181 -10.298L25.127 -11.686L24.249 -12.72L23.253 -13.781L22.172 -14.819L21.203 -15.66L20.207 -16.449L19.153 -17.207L18.099 -17.893L16.634 -18.739L15.111 -19.498L13.589 -20.144L11.949 -20.731L11.211 -21.379L10.495 -21.964L9.727 -22.55L8.961 -23.092L8.141 -23.632L7.321 -24.13L6.485 -24.6L5.623 -25.045L4.451 -25.591L3.28 -26.072L2.109 -26.493L0.879 -26.873L-0.351 -27.192L-1.581 -27.454L-2.87 -27.668L-4.161 -27.821L-4.154 -27.88L-4.012 -27.939L-2.46 -28.517L-1.289 -28.883L-0.117 -29.19L0.996 -29.43L2.109 -29.622L3.28 -29.773L4.442 -29.871ZM-8.082 -22.726L-7.029 -22.754L-5.974 -22.735L-4.92 -22.669L-3.924 -22.563L-2.811 -22.393L-1.699 -22.167L-0.26 -21.789L-0.271 -21.73L-1.289 -21.566L-2.284 -21.368L-3.28 -21.133L-4.217 -20.876L-5.213 -20.564L-6.15 -20.234L-7.087 -19.867L-8.024 -19.46L-8.961 -19.014L-9.84 -18.556L-10.719 -18.059L-11.597 -17.52L-12.476 -16.936L-13.296 -16.348L-14.116 -15.714L-14.877 -15.081L-15.756 -14.293L-16.54 -13.53L-17.635 -12.359L-18.684 -11.098L-18.73 -11.129L-18.723 -11.187L-18.336 -12.593L-17.873 -13.94L-17.314 -15.287L-16.693 -16.558L-15.988 -17.806L-15.19 -19.036L-14.325 -20.207L-13.396 -21.32L-12.71 -22.048L-11.597 -22.295L-10.426 -22.497L-9.254 -22.64L-8.082 -22.726ZM-22.023 -17.571L-22.014 -17.513L-22.493 -16.4L-22.938 -15.229L-23.271 -14.233L-23.58 -13.179L-23.845 -12.124L-24.078 -11.011L-24.256 -9.957L-24.398 -8.844L-24.496 -7.731L-24.548 -6.619L-24.556 -5.506L-24.519 -4.393L-24.436 -3.28L-24.308 -2.167L-24.133 -1.054L-23.924 0L-24.203 1.464L-24.401 2.929L-24.522 4.451L-24.559 5.916L-24.517 7.38L-24.392 8.903L-24.191 10.367L-23.911 11.831L-23.564 13.237L-23.12 14.701L-22.609 16.111L-22.014 17.513L-22.023 17.572L-22.401 17.279L-23.721 16.162L-24.717 15.215L-25.702 14.174L-26.357 13.415L-26.969 12.651L-27.537 11.89L-28.103 11.07L-28.627 10.25L-29.144 9.371L-29.619 8.493L-30.055 7.614L-30.457 6.725L-30.837 5.799L-31.184 4.861L-31.493 3.924L-31.783 2.929L-32.02 1.991L-32.235 0.996L-32.414 0L-32.176 -1.289L-31.876 -2.577L-31.511 -3.865L-31.101 -5.096L-30.626 -6.326L-30.082 -7.556L-29.497 -8.727L-28.874 -9.84L-28.18 -10.953L-27.452 -12.007L-26.65 -13.057L-25.806 -14.057L-24.935 -14.994L-24.014 -15.893L-23.046 -16.751L-22.023 -17.571ZM29.965 -17.161L29.989 -17.177L30.275 -16.751L31.012 -15.58L31.581 -14.584L32.101 -13.589L32.576 -12.593L33.007 -11.597L33.397 -10.601L33.767 -9.547L34.093 -8.493L34.379 -7.439L34.624 -6.384L34.831 -5.33L34.999 -4.276L35.13 -3.221L35.223 -2.167L35.284 -0.996L35.3 0.059L35.278 1.171L35.219 2.226L35.117 3.339L34.982 4.393L34.81 5.447L34.599 6.501L34.349 7.556L34.059 8.61L33.747 9.606L33.397 10.601L33.007 11.597L32.576 12.593L32.101 13.589L31.613 14.526L31.081 15.463L30.579 16.283L30.047 17.091L29.989 17.177L29.965 17.161L29.963 17.103L30.283 16.107L30.566 15.111L30.816 14.116L31.031 13.12L31.223 12.066L31.371 11.07L31.492 10.016L31.573 9.02L31.627 7.849L31.638 6.736L31.606 5.564L31.533 4.451L31.42 3.339L31.266 2.226L31.069 1.113L30.828 0L31.046 -0.996L31.228 -1.991L31.376 -2.987L31.491 -3.983L31.573 -4.979L31.624 -6.033L31.639 -7.029L31.62 -8.083L31.561 -9.196L31.462 -10.309L31.322 -11.421L31.132 -12.593L30.921 -13.647L30.658 -14.76L30.318 -15.99L29.963 -17.103L29.965 -17.161ZM2.053 -16.751L2.987 -16.798L3.866 -16.807L4.803 -16.778L5.681 -16.715L6.56 -16.617L7.497 -16.473L8.376 -16.301L9.254 -16.091L9.319 -16.049L9.928 -15.404L10.777 -14.413L11.497 -13.471L12.176 -12.476L12.712 -11.597L13.237 -10.639L13.712 -9.664L14.138 -8.669L14.511 -7.673L14.849 -6.619L15.119 -5.623L15.353 -4.569L15.537 -3.514L15.678 -2.401L15.762 -1.347L15.799 -0.234L15.786 0.82L15.721 1.933L15.603 3.046L15.441 4.1L15.268 4.979L15.074 5.799L14.849 6.619L14.591 7.439L14.298 8.259L13.969 9.079L13.63 9.84L13.237 10.639L12.827 11.397L12.397 12.124L11.906 12.886L11.421 13.575L10.875 14.291L10.309 14.975L9.657 15.697L9.313 16.055L9.254 16.091L7.673 16.441L6.853 16.576L6.033 16.68L5.213 16.753L4.393 16.795L3.573 16.808L2.753 16.79L1.113 16.665L0.293 16.557L-0.527 16.419L-2.109 16.064L-3.69 15.59L-5.037 15.087L-6.303 14.526L-7.556 13.878L-8.786 13.146L-9.957 12.348L-11.07 11.489L-12.124 10.569L-13.12 9.589L-14.057 8.547L-14.937 7.439L-15.753 6.267L-16.459 5.108L-17.113 3.866L-17.667 2.636L-18.155 1.347L-18.571 0L-18.329 -0.82L-18.052 -1.64L-17.739 -2.46L-17.388 -3.28L-16.997 -4.1L-16.596 -4.861L-16.157 -5.623L-15.697 -6.352L-15.193 -7.087L-14.67 -7.79L-14.116 -8.477L-13.54 -9.137L-12.934 -9.781L-12.3 -10.404L-11.633 -11.011L-10.953 -11.585L-10.25 -12.132L-9.529 -12.651L-8.786 -13.146L-8.024 -13.611L-7.263 -14.038L-6.443 -14.458L-5.623 -14.838L-4.803 -15.182L-3.983 -15.489L-3.104 -15.78L-2.284 -16.018L-1.406 -16.236L-0.586 -16.408L0.293 -16.557L1.171 -16.672L2.053 -16.751ZM-37.498 -10.719L-37.486 -10.762L-37.451 -10.719L-37.456 -10.601L-37.698 -9.02L-37.865 -7.439L-37.949 -6.091L-37.981 -4.803L-37.968 -3.631L-37.911 -2.401L-37.809 -1.171L-37.67 0L-37.826 1.347L-37.928 2.694L-37.978 4.1L-37.971 5.447L-37.919 6.677L-37.811 8.024L-37.659 9.313L-37.45 10.66L-37.451 10.719L-37.486 10.762L-37.613 10.309L-37.943 9.02L-38.226 7.731L-38.464 6.443L-38.666 5.096L-38.814 3.807L-38.922 2.46L-38.984 1.113L-38.999 -0.234L-38.968 -1.581L-38.894 -2.87L-38.771 -4.217L-38.609 -5.506L-38.393 -6.853L-38.141 -8.141L-37.843 -9.43L-37.498 -10.719ZM18.948 -10.66L18.977 -10.69L19.776 -9.899L20.383 -9.242L20.973 -8.551L21.964 -7.255L22.885 -5.857L23.663 -4.478L24.35 -3.046L24.951 -1.545L25.454 0L25.083 1.171L24.67 2.284L24.192 3.397L23.677 4.451L23.095 5.506L22.491 6.481L21.833 7.439L21.116 8.376L20.527 9.079L19.888 9.781L18.977 10.69L18.948 10.66L19.446 9.313L19.839 8.083L20.185 6.794L20.48 5.447L20.707 4.1L20.868 2.753L20.968 1.347L21 0L20.968 -1.347L20.868 -2.753L20.707 -4.1L20.48 -5.447L20.185 -6.794L19.839 -8.083L19.446 -9.313L18.948 -10.66ZM26.174 10.309L26.2 10.309L26.218 10.367L26.162 10.777L25.855 12.476L25.528 13.823L25.126 15.17L24.691 16.4L24.187 17.63L23.61 18.86L22.989 20.031L22.316 21.166L21.596 22.257L20.828 23.311L19.981 24.366L19.099 25.361L18.188 26.299L17.22 27.206L16.224 28.057L15.17 28.443L13.975 28.817L12.769 29.137L11.597 29.395L10.367 29.61L9.196 29.763L7.966 29.869L6.794 29.92L5.564 29.92L4.334 29.864L3.163 29.76L1.991 29.604L0.82 29.396L-0.351 29.133L-1.523 28.814L-2.636 28.457L-4.154 27.88L-4.161 27.821L-3.046 27.692L-1.874 27.508L-0.761 27.286L0.351 27.017L1.464 26.699L2.519 26.352L3.599 25.947L4.686 25.487L5.681 25.016L6.677 24.495L7.614 23.957L8.547 23.37L9.43 22.765L10.309 22.111L11.129 21.448L11.949 20.731L13.647 20.121L15.229 19.444L16.751 18.676L18.274 17.784L19.388 17.044L20.5 16.224L21.576 15.346L22.609 14.413L23.554 13.471L24.483 12.454L25.338 11.421L26.174 10.309ZM-18.73 11.129L-18.684 11.098L-17.747 12.231L-16.769 13.296L-15.943 14.116L-15.111 14.877L-14.174 15.667L-13.179 16.435L-12.183 17.136L-11.14 17.806L-9.899 18.524L-8.61 19.186L-7.263 19.794L-5.904 20.324L-4.51 20.788L-3.104 21.177L-1.699 21.489L-0.271 21.73L-0.26 21.789L-0.996 21.994L-2.401 22.316L-3.866 22.555L-5.33 22.7L-6.794 22.753L-8.259 22.716L-9.781 22.583L-11.246 22.362L-12.71 22.048L-13.12 21.625L-13.706 20.963L-14.728 19.68L-15.639 18.364L-16.462 16.986L-17.179 15.58L-17.805 14.116L-18.336 12.593L-18.573 11.773L-18.73 11.129ZM-29.851 17.396L-29.813 17.375L-28.993 18.276L-28.13 19.153L-26.799 20.383L-25.298 21.613L-24.483 22.22L-23.663 22.789L-22.726 23.395L-21.73 23.987L-20.734 24.53L-19.68 25.056L-18.684 25.506L-17.605 25.947L-16.576 26.323L-15.404 26.708L-14.082 27.88L-12.71 28.961L-11.246 29.984L-9.781 30.886L-8.669 31.5L-7.556 32.056L-6.425 32.566L-5.264 33.034L-4.159 33.432L-2.987 33.804L-1.581 34.186L-0.18 34.499L-0.091 34.557L-0.117 34.559L-1.23 34.625L-2.343 34.65L-3.456 34.634L-4.627 34.572L-5.799 34.465L-6.911 34.32L-8.083 34.122L-9.196 33.89L-10.285 33.62L-11.421 33.292L-12.476 32.945L-13.53 32.554L-14.584 32.118L-15.639 31.634L-16.634 31.132L-17.644 30.574L-18.626 29.983L-19.6 29.344L-20.508 28.7L-21.424 27.997L-22.316 27.257L-23.136 26.524L-23.977 25.713L-24.766 24.893L-25.537 24.028L-26.274 23.136L-26.946 22.257L-27.608 21.32L-28.257 20.324L-28.851 19.329L-29.456 18.216L-29.851 17.396ZM27.932 27.119L27.997 27.066L28.028 27.119L26.533 28.583L25.419 29.579L24.212 30.574L23.077 31.44L21.964 32.227L20.793 32.995L19.621 33.705L18.45 34.36L17.22 34.992L15.99 35.571L14.76 36.099L13.53 36.578L12.241 37.029L10.953 37.43L9.606 37.799L9.489 37.817L9.438 37.779L10.601 37.336L11.831 36.814L13.003 36.264L14.153 35.67L15.392 34.967L16.523 34.264L17.647 33.503L18.84 32.624L19.973 32.133L21.027 31.635L22.081 31.091L23.108 30.516L24.366 29.746L25.573 28.934L26.767 28.055L27.932 27.119Z"/>
  <g clip-path="url(#rosette)"><path fill="#c9a227" fill-rule="evenodd" d="M-41.0 -41.0H41.0V41.0H-41.0ZM9.438 -37.779L9.489 -37.817L9.547 -37.813L11.48 -37.272L12.944 -36.789L14.35 -36.264L15.639 -35.727L16.927 -35.135L18.157 -34.515L19.387 -33.84L20.559 -33.141L21.73 -32.385L22.843 -31.61L23.956 -30.775L25.01 -29.925L26.064 -29.011L27.06 -28.085L28.028 -27.119L27.997 -27.066L26.826 -28.01L25.654 -28.877L24.776 -29.478L23.897 -30.041L22.667 -30.768L21.437 -31.429L20.149 -32.053L18.84 -32.624L17.811 -33.386L16.879 -34.03L15.931 -34.64L14.891 -35.26L13.53 -35.999L12.183 -36.655L10.809 -37.251L9.438 -37.779ZM-3.897 -34.616L-2.636 -34.65L-1.464 -34.634L-0.091 -34.557L-0.18 -34.499L-1.406 -34.228L-2.519 -33.939L-3.69 -33.587L-4.803 -33.206L-5.916 -32.778L-7.029 -32.3L-8.083 -31.799L-9.137 -31.249L-9.957 -30.784L-10.836 -30.248L-12.417 -29.176L-13.179 -28.606L-13.941 -27.997L-14.696 -27.353L-15.404 -26.708L-16.517 -26.344L-17.396 -26.027L-18.391 -25.631L-19.329 -25.219L-20.254 -24.776L-21.154 -24.307L-22.081 -23.784L-22.96 -23.248L-24.266 -22.374L-25.537 -21.427L-26.767 -20.411L-27.949 -19.329L-28.883 -18.391L-29.813 -17.375L-29.851 -17.396L-29.835 -17.454L-29.364 -18.391L-28.508 -19.914L-27.569 -21.379L-26.504 -22.843L-25.397 -24.19L-24.659 -25.008L-23.897 -25.793L-23.077 -26.578L-22.272 -27.294L-21.437 -27.986L-20.559 -28.662L-19.68 -29.29L-18.743 -29.909L-17.864 -30.446L-17.018 -30.926L-16.166 -31.374L-15.287 -31.801L-14.36 -32.214L-13.471 -32.577L-12.554 -32.917L-11.597 -33.237L-10.66 -33.517L-9.664 -33.779L-8.727 -33.993L-7.79 -34.176L-6.794 -34.337L-5.799 -34.465L-4.803 -34.559L-3.897 -34.616ZM4.442 -29.871L6.091 -29.926L7.731 -29.883L9.371 -29.743L11.07 -29.494L12.007 -29.311L12.944 -29.094L13.881 -28.844L14.76 -28.578L16.166 -28.087L16.648 -27.704L17.864 -26.611L18.989 -25.479L20.079 -24.249L21.086 -22.969L21.992 -21.671L22.856 -20.266L23.61 -18.86L24.288 -17.396L24.646 -16.517L24.968 -15.639L25.257 -14.76L25.528 -13.823L25.763 -12.886L25.973 -11.89L26.178 -10.66L26.218 -10.367L26.2 -10.309L26.181 -10.298L25.127 -11.686L24.249 -12.72L23.253 -13.781L22.172 -14.819L21.203 -15.66L20.207 -16.449L19.153 -17.207L18.099 -17.893L16.634 -18.739L15.111 -19.498L13.589 -20.144L11.949 -20.731L11.211 -21.379L10.495 -21.964L9.727 -22.55L8.961 -23.092L8.141 -23.632L7.321 -24.13L6.485 -24.6L5.623 -25.045L4.451 -25.591L3.28 -26.072L2.109 -26.493L0.879 -26.873L-0.351 -27.192L-1.581 -27.454L-2.87 -27.668L-4.161 -27.821L-4.154 -27.88L-4.012 -27.939L-2.46 -28.517L-1.289 -28.883L-0.117 -29.19L0.996 -29.43L2.109 -29.622L3.28 -29.773L4.442 -29.871ZM-8.082 -22.726L-7.029 -22.754L-5.974 -22.735L-4.92 -22.669L-3.924 -22.563L-2.811 -22.393L-1.699 -22.167L-0.26 -21.789L-0.271 -21.73L-1.289 -21.566L-2.284 -21.368L-3.28 -21.133L-4.217 -20.876L-5.213 -20.564L-6.15 -20.234L-7.087 -19.867L-8.024 -19.46L-8.961 -19.014L-9.84 -18.556L-10.719 -18.059L-11.597 -17.52L-12.476 -16.936L-13.296 -16.348L-14.116 -15.714L-14.877 -15.081L-15.756 -14.293L-16.54 -13.53L-17.635 -12.359L-18.684 -11.098L-18.73 -11.129L-18.723 -11.187L-18.336 -12.593L-17.873 -13.94L-17.314 -15.287L-16.693 -16.558L-15.988 -17.806L-15.19 -19.036L-14.325 -20.207L-13.396 -21.32L-12.71 -22.048L-11.597 -22.295L-10.426 -22.497L-9.254 -22.64L-8.082 -22.726ZM-22.023 -17.571L-22.014 -17.513L-22.493 -16.4L-22.938 -15.229L-23.271 -14.233L-23.58 -13.179L-23.845 -12.124L-24.078 -11.011L-24.256 -9.957L-24.398 -8.844L-24.496 -7.731L-24.548 -6.619L-24.556 -5.506L-24.519 -4.393L-24.436 -3.28L-24.308 -2.167L-24.133 -1.054L-23.924 0L-24.203 1.464L-24.401 2.929L-24.522 4.451L-24.559 5.916L-24.517 7.38L-24.392 8.903L-24.191 10.367L-23.911 11.831L-23.564 13.237L-23.12 14.701L-22.609 16.111L-22.014 17.513L-22.023 17.572L-22.401 17.279L-23.721 16.162L-24.717 15.215L-25.702 14.174L-26.357 13.415L-26.969 12.651L-27.537 11.89L-28.103 11.07L-28.627 10.25L-29.144 9.371L-29.619 8.493L-30.055 7.614L-30.457 6.725L-30.837 5.799L-31.184 4.861L-31.493 3.924L-31.783 2.929L-32.02 1.991L-32.235 0.996L-32.414 0L-32.176 -1.289L-31.876 -2.577L-31.511 -3.865L-31.101 -5.096L-30.626 -6.326L-30.082 -7.556L-29.497 -8.727L-28.874 -9.84L-28.18 -10.953L-27.452 -12.007L-26.65 -13.057L-25.806 -14.057L-24.935 -14.994L-24.014 -15.893L-23.046 -16.751L-22.023 -17.571ZM29.965 -17.161L29.989 -17.177L30.275 -16.751L31.012 -15.58L31.581 -14.584L32.101 -13.589L32.576 -12.593L33.007 -11.597L33.397 -10.601L33.767 -9.547L34.093 -8.493L34.379 -7.439L34.624 -6.384L34.831 -5.33L34.999 -4.276L35.13 -3.221L35.223 -2.167L35.284 -0.996L35.3 0.059L35.278 1.171L35.219 2.226L35.117 3.339L34.982 4.393L34.81 5.447L34.599 6.501L34.349 7.556L34.059 8.61L33.747 9.606L33.397 10.601L33.007 11.597L32.576 12.593L32.101 13.589L31.613 14.526L31.081 15.463L30.579 16.283L30.047 17.091L29.989 17.177L29.965 17.161L29.963 17.103L30.283 16.107L30.566 15.111L30.816 14.116L31.031 13.12L31.223 12.066L31.371 11.07L31.492 10.016L31.573 9.02L31.627 7.849L31.638 6.736L31.606 5.564L31.533 4.451L31.42 3.339L31.266 2.226L31.069 1.113L30.828 0L31.046 -0.996L31.228 -1.991L31.376 -2.987L31.491 -3.983L31.573 -4.979L31.624 -6.033L31.639 -7.029L31.62 -8.083L31.561 -9.196L31.462 -10.309L31.322 -11.421L31.132 -12.593L30.921 -13.647L30.658 -14.76L30.318 -15.99L29.963 -17.103L29.965 -17.161ZM2.053 -16.751L2.987 -16.798L3.866 -16.807L4.803 -16.778L5.681 -16.715L6.56 -16.617L7.497 -16.473L8.376 -16.301L9.254 -16.091L9.319 -16.049L9.928 -15.404L10.777 -14.413L11.497 -13.471L12.176 -12.476L12.712 -11.597L13.237 -10.639L13.712 -9.664L14.138 -8.669L14.511 -7.673L14.849 -6.619L15.119 -5.623L15.353 -4.569L15.537 -3.514L15.678 -2.401L15.762 -1.347L15.799 -0.234L15.786 0.82L15.721 1.933L15.603 3.046L15.441 4.1L15.268 4.979L15.074 5.799L14.849 6.619L14.591 7.439L14.298 8.259L13.969 9.079L13.63 9.84L13.237 10.639L12.827 11.397L12.397 12.124L11.906 12.886L11.421 13.575L10.875 14.291L10.309 14.975L9.657 15.697L9.313 16.055L9.254 16.091L7.673 16.441L6.853 16.576L6.033 16.68L5.213 16.753L4.393 16.795L3.573 16.808L2.753 16.79L1.113 16.665L0.293 16.557L-0.527 16.419L-2.109 16.064L-3.69 15.59L-5.037 15.087L-6.303 14.526L-7.556 13.878L-8.786 13.146L-9.957 12.348L-11.07 11.489L-12.124 10.569L-13.12 9.589L-14.057 8.547L-14.937 7.439L-15.753 6.267L-16.459 5.108L-17.113 3.866L-17.667 2.636L-18.155 1.347L-18.571 0L-18.329 -0.82L-18.052 -1.64L-17.739 -2.46L-17.388 -3.28L-16.997 -4.1L-16.596 -4.861L-16.157 -5.623L-15.697 -6.352L-15.193 -7.087L-14.67 -7.79L-14.116 -8.477L-13.54 -9.137L-12.934 -9.781L-12.3 -10.404L-11.633 -11.011L-10.953 -11.585L-10.25 -12.132L-9.529 -12.651L-8.786 -13.146L-8.024 -13.611L-7.263 -14.038L-6.443 -14.458L-5.623 -14.838L-4.803 -15.182L-3.983 -15.489L-3.104 -15.78L-2.284 -16.018L-1.406 -16.236L-0.586 -16.408L0.293 -16.557L1.171 -16.672L2.053 -16.751ZM-37.498 -10.719L-37.486 -10.762L-37.451 -10.719L-37.456 -10.601L-37.698 -9.02L-37.865 -7.439L-37.949 -6.091L-37.981 -4.803L-37.968 -3.631L-37.911 -2.401L-37.809 -1.171L-37.67 0L-37.826 1.347L-37.928 2.694L-37.978 4.1L-37.971 5.447L-37.919 6.677L-37.811 8.024L-37.659 9.313L-37.45 10.66L-37.451 10.719L-37.486 10.762L-37.613 10.309L-37.943 9.02L-38.226 7.731L-38.464 6.443L-38.666 5.096L-38.814 3.807L-38.922 2.46L-38.984 1.113L-38.999 -0.234L-38.968 -1.581L-38.894 -2.87L-38.771 -4.217L-38.609 -5.506L-38.393 -6.853L-38.141 -8.141L-37.843 -9.43L-37.498 -10.719ZM18.948 -10.66L18.977 -10.69L19.776 -9.899L20.383 -9.242L20.973 -8.551L21.964 -7.255L22.885 -5.857L23.663 -4.478L24.35 -3.046L24.951 -1.545L25.454 0L25.083 1.171L24.67 2.284L24.192 3.397L23.677 4.451L23.095 5.506L22.491 6.481L21.833 7.439L21.116 8.376L20.527 9.079L19.888 9.781L18.977 10.69L18.948 10.66L19.446 9.313L19.839 8.083L20.185 6.794L20.48 5.447L20.707 4.1L20.868 2.753L20.968 1.347L21 0L20.968 -1.347L20.868 -2.753L20.707 -4.1L20.48 -5.447L20.185 -6.794L19.839 -8.083L19.446 -9.313L18.948 -10.66ZM26.174 10.309L26.2 10.309L26.218 10.367L26.162 10.777L25.855 12.476L25.528 13.823L25.126 15.17L24.691 16.4L24.187 17.63L23.61 18.86L22.989 20.031L22.316 21.166L21.596 22.257L20.828 23.311L19.981 24.366L19.099 25.361L18.188 26.299L17.22 27.206L16.224 28.057L15.17 28.443L13.975 28.817L12.769 29.137L11.597 29.395L10.367 29.61L9.196 29.763L7.966 29.869L6.794 29.92L5.564 29.92L4.334 29.864L3.163 29.76L1.991 29.604L0.82 29.396L-0.351 29.133L-1.523 28.814L-2.636 28.457L-4.154 27.88L-4.161 27.821L-3.046 27.692L-1.874 27.508L-0.761 27.286L0.351 27.017L1.464 26.699L2.519 26.352L3.599 25.947L4.686 25.487L5.681 25.016L6.677 24.495L7.614 23.957L8.547 23.37L9.43 22.765L10.309 22.111L11.129 21.448L11.949 20.731L13.647 20.121L15.229 19.444L16.751 18.676L18.274 17.784L19.388 17.044L20.5 16.224L21.576 15.346L22.609 14.413L23.554 13.471L24.483 12.454L25.338 11.421L26.174 10.309ZM-18.73 11.129L-18.684 11.098L-17.747 12.231L-16.769 13.296L-15.943 14.116L-15.111 14.877L-14.174 15.667L-13.179 16.435L-12.183 17.136L-11.14 17.806L-9.899 18.524L-8.61 19.186L-7.263 19.794L-5.904 20.324L-4.51 20.788L-3.104 21.177L-1.699 21.489L-0.271 21.73L-0.26 21.789L-0.996 21.994L-2.401 22.316L-3.866 22.555L-5.33 22.7L-6.794 22.753L-8.259 22.716L-9.781 22.583L-11.246 22.362L-12.71 22.048L-13.12 21.625L-13.706 20.963L-14.728 19.68L-15.639 18.364L-16.462 16.986L-17.179 15.58L-17.805 14.116L-18.336 12.593L-18.573 11.773L-18.73 11.129ZM-29.851 17.396L-29.813 17.375L-28.993 18.276L-28.13 19.153L-26.799 20.383L-25.298 21.613L-24.483 22.22L-23.663 22.789L-22.726 23.395L-21.73 23.987L-20.734 24.53L-19.68 25.056L-18.684 25.506L-17.605 25.947L-16.576 26.323L-15.404 26.708L-14.082 27.88L-12.71 28.961L-11.246 29.984L-9.781 30.886L-8.669 31.5L-7.556 32.056L-6.425 32.566L-5.264 33.034L-4.159 33.432L-2.987 33.804L-1.581 34.186L-0.18 34.499L-0.091 34.557L-0.117 34.559L-1.23 34.625L-2.343 34.65L-3.456 34.634L-4.627 34.572L-5.799 34.465L-6.911 34.32L-8.083 34.122L-9.196 33.89L-10.285 33.62L-11.421 33.292L-12.476 32.945L-13.53 32.554L-14.584 32.118L-15.639 31.634L-16.634 31.132L-17.644 30.574L-18.626 29.983L-19.6 29.344L-20.508 28.7L-21.424 27.997L-22.316 27.257L-23.136 26.524L-23.977 25.713L-24.766 24.893L-25.537 24.028L-26.274 23.136L-26.946 22.257L-27.608 21.32L-28.257 20.324L-28.851 19.329L-29.456 18.216L-29.851 17.396ZM27.932 27.119L27.997 27.066L28.028 27.119L26.533 28.583L25.419 29.579L24.212 30.574L23.077 31.44L21.964 32.227L20.793 32.995L19.621 33.705L18.45 34.36L17.22 34.992L15.99 35.571L14.76 36.099L13.53 36.578L12.241 37.029L10.953 37.43L9.606 37.799L9.489 37.817L9.438 37.779L10.601 37.336L11.831 36.814L13.003 36.264L14.153 35.67L15.392 34.967L16.523 34.264L17.647 33.503L18.84 32.624L19.973 32.133L21.027 31.635L22.081 31.091L23.108 30.516L24.366 29.746L25.573 28.934L26.767 28.055L27.932 27.119Z"/></g>
</svg>
